<?xml version="1.0" encoding="utf-8"?><svg version="1.1" id="Layer_1" xmlns="http://www.w3.org/2000/svg" xmlns:xlink="http://www.w3.org/1999/xlink" x="0px" y="0px" viewBox="0 0 122.88 122.88" style="enable-background:new 0 0 122.88 122.88" xml:space="preserve"><g><path d="M97.45,110.23c-0.5-0.5-0.5-1.32,0-1.82c0.5-0.5,1.32-0.5,1.82,0l6.13,6.13c0.5,0.5,0.5,1.32,0,1.82 c-0.5,0.5-1.32,0.5-1.82,0L97.45,110.23L97.45,110.23z M90.16,68.75l4.75,4.75l1.24-1.24c0.03-0.03,0.06-0.06,0.09-0.09 c0.53-0.49,1.21-0.73,1.89-0.73c0.72,0,1.44,0.27,1.98,0.82l4.09,4.09l0,0c0.03,0.03,0.06,0.06,0.09,0.09 c0.49,0.53,0.73,1.21,0.73,1.89c0,0.72-0.27,1.43-0.82,1.98l0,0l0,0h0l-1.24,1.24l19,19c0.03,0.03,0.06,0.06,0.08,0.09 c0.55,0.59,0.83,1.35,0.83,2.11c0,0.8-0.3,1.59-0.91,2.2l-17,17h0c-0.61,0.61-1.4,0.91-2.2,0.91c-0.8,0-1.59-0.3-2.2-0.91l0,0 l-19-19l-0.6,0.6c-0.55,0.55-1.27,0.82-1.98,0.82c-0.72,0-1.44-0.27-1.98-0.82l-4.09-4.09l0,0c-0.03-0.03-0.06-0.06-0.09-0.09 c-0.49-0.53-0.73-1.21-0.73-1.89c0-0.72,0.27-1.43,0.82-1.98l0,0l0,0v0l0.6-0.6l-5.19-5.19c-0.21,0.01-0.42,0.02-0.63,0.02 c-2.79,0-5.57-1.06-7.69-3.17l0,0L36.53,63.1c-2.12-2.12-3.17-4.9-3.17-7.69c0-0.21,0.01-0.42,0.02-0.63L0.91,22.31 C0.3,21.71,0,20.91,0,20.11c0-0.79,0.3-1.59,0.91-2.2l0,0l17-17c0.03-0.03,0.06-0.06,0.09-0.09C18.6,0.27,19.36,0,20.11,0 c0.8,0,1.59,0.3,2.2,0.91l32.03,32.03c0.53-0.08,1.07-0.12,1.61-0.12c2.79,0,5.57,1.06,7.69,3.17l0,0L87.1,59.46l0,0 c2.12,2.12,3.17,4.9,3.17,7.69C90.27,67.68,90.24,68.22,90.16,68.75L90.16,68.75z M93.09,75.32l-3.75-3.75 c-0.53,1.18-1.27,2.29-2.24,3.26l0,0L75.37,86.56l0,0c-1.18,1.18-2.56,2.02-4.03,2.55l3.98,3.98l2.49-2.49l-2.1-2.1 c-0.5-0.5-0.5-1.31,0-1.82c0.5-0.5,1.32-0.5,1.82,0l2.1,2.1l9.83-9.83l-1.81-1.81c-0.5-0.5-0.5-1.32,0-1.82 c0.5-0.5,1.32-0.5,1.82,0l1.81,1.81L93.09,75.32L93.09,75.32z M80.55,100.35c0.03-0.04,0.06-0.08,0.1-0.11 c0.04-0.04,0.07-0.07,0.11-0.1L102.4,78.5v0l0,0c0.04-0.04,0.06-0.11,0.06-0.17c0-0.05-0.01-0.1-0.04-0.14l-0.02-0.02l0,0 l-4.09-4.09c-0.04-0.04-0.11-0.07-0.17-0.07c-0.05,0-0.1,0.01-0.14,0.04l-0.02,0.02l-17.4,17.4l-0.03,0.03l-0.03,0.03l-5.79,5.79h0 l0,0c-0.04,0.04-0.06,0.11-0.06,0.17c0,0.05,0.01,0.1,0.04,0.14l0.02,0.02l0,0l4.09,4.09c0.04,0.04,0.11,0.07,0.17,0.07 c0.06,0,0.12-0.02,0.17-0.07L80.55,100.35L80.55,100.35z M83.38,101.15l19,19l0,0c0.1,0.1,0.24,0.16,0.38,0.16 c0.14,0,0.28-0.05,0.38-0.16v0l17-17c0.1-0.1,0.16-0.24,0.16-0.38c0-0.13-0.04-0.25-0.12-0.35l-0.03-0.03l-19-19l-1.95,1.95 c0.23,0.05,0.45,0.17,0.63,0.35l6.13,6.13c0.5,0.5,0.5,1.32,0,1.82c-0.5,0.5-1.32,0.5-1.82,0l-6.13-6.13 c-0.18-0.18-0.3-0.4-0.35-0.63L87.55,96.99c0.23,0.05,0.45,0.17,0.63,0.35l6.13,6.13c0.5,0.5,0.5,1.32,0,1.82 c-0.5,0.5-1.32,0.5-1.82,0l-6.13-6.13c-0.18-0.18-0.3-0.4-0.35-0.63L83.38,101.15L83.38,101.15z M68.32,87.14 c0.19-0.07,0.4-0.09,0.61-0.07c1.7-0.25,3.33-1.03,4.63-2.33l0,0l11.73-11.73l0,0c1.61-1.61,2.42-3.74,2.42-5.87 c0-2.13-0.81-4.26-2.42-5.87l0,0L61.82,37.81l0,0c-1.61-1.61-3.74-2.42-5.87-2.42c-2.13,0-4.26,0.81-5.87,2.42l0,0l-2.97,2.97 l3.67,3.67l1.89-1.89c0.9-0.9,2.09-1.35,3.28-1.35s2.37,0.45,3.28,1.35l21.85,21.85c0.9,0.9,1.35,2.09,1.35,3.28 c0,1.19-0.45,2.37-1.35,3.28L70.96,81.07h0c-0.9,0.9-2.09,1.35-3.28,1.35c-1.19,0-2.37-0.45-3.28-1.35h0L42.56,59.23 c-0.9-0.9-1.35-2.09-1.35-3.28s0.45-2.37,1.35-3.28l1.89-1.89l-3.67-3.67l-2.43,2.43c-1.61,1.61-2.42,3.74-2.42,5.87 c0,2.13,0.81,4.26,2.42,5.87l23.46,23.46l0,0c1.61,1.61,3.74,2.42,5.87,2.42C67.89,87.17,68.11,87.16,68.32,87.14L68.32,87.14z M51.52,33.75L20.5,2.73c-0.1-0.1-0.24-0.16-0.38-0.16c-0.13,0-0.25,0.04-0.35,0.12l-0.04,0.04l-17,17l0,0l0,0 c-0.1,0.1-0.15,0.24-0.15,0.38c0,0.14,0.05,0.28,0.16,0.38l31.26,31.26c0.41-1.16,1.03-2.27,1.84-3.26 c-0.13-0.06-0.26-0.15-0.37-0.26l-6.13-6.13c-0.5-0.5-0.5-1.32,0-1.82c0.5-0.5,1.32-0.5,1.82,0l6.13,6.13 c0.1,0.1,0.17,0.2,0.23,0.32l1.45-1.45l-0.49-0.49l0,0c-0.03-0.03-0.05-0.05-0.07-0.08c-0.82-0.86-1.23-1.98-1.23-3.09 c0-1.14,0.44-2.29,1.31-3.16l0,0l0,0l0,0c0.87-0.87,2.02-1.31,3.17-1.31c1.15,0,2.3,0.44,3.17,1.31l0.49,0.49l2.13-2.13 c-0.11-0.06-0.22-0.14-0.32-0.23l-6.13-6.13c-0.5-0.5-0.5-1.32,0-1.82c0.5-0.5,1.32-0.5,1.82,0l6.13,6.13 c0.12,0.12,0.2,0.25,0.27,0.39C49.92,34.59,50.7,34.12,51.52,33.75L51.52,33.75z M46.27,52.6l-1.89,1.89 c-0.4,0.4-0.6,0.93-0.6,1.46s0.2,1.06,0.6,1.46l21.85,21.85v0c0.4,0.4,0.93,0.6,1.46,0.6c0.53,0,1.06-0.2,1.46-0.6v0l10.12-10.12 c0.4-0.4,0.6-0.93,0.6-1.46c0-0.53-0.2-1.06-0.6-1.46L57.41,44.38c-0.4-0.4-0.93-0.6-1.46-0.6s-1.06,0.2-1.46,0.6l-1.89,1.89 l2.1,2.1c0.87,0.87,1.31,2.02,1.31,3.17c0,1.15-0.44,2.3-1.31,3.17c-0.87,0.87-2.02,1.31-3.17,1.31c-1.15,0-2.3-0.44-3.17-1.31 L46.27,52.6L46.27,52.6z M49.77,47.07l-5.45-5.45l-1.33-1.33c-0.37-0.37-0.86-0.56-1.35-0.56c-0.49,0-0.98,0.19-1.35,0.56l0,0l0,0 c-0.37,0.37-0.55,0.86-0.55,1.35c0,0.47,0.17,0.94,0.5,1.3c0.02,0.02,0.04,0.03,0.05,0.05l0,0l9.9,9.9 c0.37,0.37,0.86,0.56,1.35,0.56c0.49,0,0.98-0.19,1.35-0.56c0.37-0.37,0.56-0.86,0.56-1.35s-0.19-0.98-0.56-1.35L49.77,47.07 L49.77,47.07z M18.81,8.29c-0.5-0.5-0.5-1.32,0-1.82c0.5-0.5,1.32-0.5,1.82,0l6.13,6.13c0.5,0.5,0.5,1.32,0,1.82 c-0.5,0.5-1.32,0.5-1.82,0L18.81,8.29L18.81,8.29z M29.89,19.38c-0.5-0.5-0.5-1.32,0-1.82c0.5-0.5,1.32-0.5,1.82,0l6.13,6.13 c0.5,0.5,0.5,1.32,0,1.82c-0.5,0.5-1.32,0.5-1.82,0L29.89,19.38L29.89,19.38z M7.16,19.94c-0.5-0.5-0.5-1.32,0-1.82 c0.5-0.5,1.32-0.5,1.82,0l6.13,6.13c0.5,0.5,0.5,1.32,0,1.82c-0.5,0.5-1.32,0.5-1.82,0L7.16,19.94L7.16,19.94z M18.24,31.02 c-0.5-0.5-0.5-1.32,0-1.82c0.5-0.5,1.32-0.5,1.82,0l6.13,6.13c0.5,0.5,0.5,1.32,0,1.82c-0.5,0.5-1.32,0.5-1.82,0L18.24,31.02 L18.24,31.02z M109.1,98.58c-0.5-0.5-0.5-1.32,0-1.82c0.5-0.5,1.32-0.5,1.82,0l6.13,6.13c0.5,0.5,0.5,1.32,0,1.82 c-0.5,0.5-1.32,0.5-1.82,0L109.1,98.58L109.1,98.58z"/></g></svg>